<svg width="27" height="32" viewBox="0 0 27 32" fill="none" xmlns="http://www.w3.org/2000/svg">
<g clip-path="url(#clip0_0_3)">
<g filter="url(#filter0_d_0_3)">
<path fill-rule="evenodd" clip-rule="evenodd" d="M21.6581 8.86169L20.7643 9.55393L19.3246 10.669C19.1308 9.69977 18.5698 8.86663 17.7938 8.32488L20.5655 6.17833L19.7072 5.03924C19.3564 4.57347 19.4442 3.90735 19.9036 3.5515L21.9931 6.32285C22.3025 6.73337 22.4105 7.23492 22.3361 7.70776C22.2665 8.15036 22.0371 8.56808 21.6581 8.86169Z" fill="#387ADF"/>
<path fill-rule="evenodd" clip-rule="evenodd" d="M12.8729 18.5513C15.9643 16.9308 18.7172 16.4725 19.4116 17.5855C19.9819 18.4995 19.0116 20.2328 17.1123 22.0079L18.9153 24.9402H20.1432C20.708 24.9559 21.1615 25.4238 21.1615 26H19.5668H17.4528L16.8012 24.9402L15.7564 23.2408L15.348 22.5769C15.492 22.3378 15.5757 22.0574 15.5757 21.7568C15.5757 20.886 14.8795 20.18 14.0204 20.18C13.9727 20.18 13.9262 20.1845 13.8796 20.1887L12.8729 18.5513Z" fill="#387ADF"/>
<path fill-rule="evenodd" clip-rule="evenodd" d="M4.22637 8.45286C4.38777 7.66512 5.07592 7.07295 5.90085 7.07295C6.13633 7.07295 6.36061 7.12138 6.56455 7.2085C7.17947 7.4714 7.61133 8.08802 7.61133 8.8072V17.0312C7.61133 17.6171 8.07987 18.0924 8.65812 18.0924C9.07907 18.0924 9.44115 17.8398 9.60731 17.4765C9.62205 17.4442 9.6353 17.4109 9.64687 17.377L10.6188 14.9347L8.73219 8.48086C8.73089 8.47672 8.72911 8.47237 8.72781 8.46799C8.70486 8.39572 8.6847 8.32346 8.66502 8.251C7.97789 5.72209 9.21444 3.08213 11.5266 2L15.9703 3.56644C16.5158 3.75534 16.8074 4.35564 16.6239 4.909L15.4986 4.50103C15.0537 4.33973 14.5643 4.5746 14.4052 5.02542C14.2462 5.47625 14.4778 5.97266 14.9226 6.13387L16.0836 6.55478C15.8809 7.09868 15.2836 7.37678 14.7441 7.17599L13.5179 6.71937C13.4309 7.21959 13.7081 7.72535 14.1958 7.90196L16.5448 8.76861C17.5358 9.19805 18.2387 10.1758 18.2874 11.3252C18.2891 11.3674 18.292 11.4094 18.292 11.452C18.292 11.4781 18.2894 11.5037 18.2887 11.5296C18.2933 11.5176 18.2963 11.5097 18.2963 11.5097H21.9629V10.0762C21.9629 9.67565 22.4515 9.32726 22.7611 9.14659L23.0096 9.01492V12.5279C22.9964 13.5167 22.2028 14.3144 21.2243 14.3144H17.0887C16.7224 14.3144 16.3664 14.3586 16.0253 14.4415C16.042 14.4374 16.0584 14.4313 16.075 14.4265C16.0571 14.4318 16.0392 14.4371 16.021 14.4415C16.0104 14.4441 15.9997 14.4469 15.9889 14.4497C14.1458 14.9121 12.746 16.5143 12.5596 18.4766C12.5564 18.5108 12.5543 18.5454 12.5518 18.58C12.5435 18.6937 12.538 18.808 12.538 18.9238C12.538 20.0284 12.9216 21.0421 13.5606 21.8361C13.6075 21.8943 13.6557 21.9515 13.7052 22.0073C13.8358 22.1959 13.9131 22.4252 13.9131 22.6732C13.9131 23.3151 13.3997 23.8356 12.7665 23.8356C12.5387 23.8356 12.3265 23.7682 12.1481 23.6523L9.82665 22.2631C9.50636 22.4447 9.28973 22.7913 9.28973 23.1897C9.28973 23.453 9.38433 23.6942 9.54107 23.8796L10.5044 24.9402H11.6796H11.7371C12.3017 24.9559 12.7551 25.4237 12.7551 26H10.6619H9.39777C9.39777 24.9996 8.59794 24.1888 7.61133 24.1888V21.0992C8.43001 20.9339 9.04716 20.2019 9.04716 19.3233C9.04716 19.2793 9.04511 19.2356 9.04203 19.1921C8.93735 19.2079 8.83136 19.2189 8.7223 19.2189C8.31535 19.2189 7.93619 19.1026 7.61133 18.9039C6.98476 18.521 6.56455 17.8267 6.56455 17.0312V8.8072C6.56455 8.42401 6.25817 8.11349 5.88032 8.11349C5.51581 8.11349 5.21867 8.40272 5.19814 8.7673C5.66817 9.09353 5.97679 9.64114 5.97679 10.2623C5.97679 11.2626 5.17706 12.0735 4.19036 12.0735V8.8072C4.19036 8.68574 4.20286 8.56741 4.22637 8.45286Z" fill="#387ADF"/>
</g>
</g>
<defs>
<filter id="filter0_d_0_3" x="0.190361" y="0" width="26.8193" height="32" filterUnits="userSpaceOnUse" color-interpolation-filters="sRGB">
<feFlood flood-opacity="0" result="BackgroundImageFix"/>
<feColorMatrix in="SourceAlpha" type="matrix" values="0 0 0 0 0 0 0 0 0 0 0 0 0 0 0 0 0 0 127 0" result="hardAlpha"/>
<feOffset dy="2"/>
<feGaussianBlur stdDeviation="2"/>
<feColorMatrix type="matrix" values="0 0 0 0 0 0 0 0 0 0 0 0 0 0 0 0 0 0 0.05 0"/>
<feBlend mode="normal" in2="BackgroundImageFix" result="effect1_dropShadow_0_3"/>
<feBlend mode="normal" in="SourceGraphic" in2="effect1_dropShadow_0_3" result="shape"/>
</filter>
<clipPath id="clip0_0_3">
<rect width="27" height="32" fill="white"/>
</clipPath>
</defs>
</svg>
